<svg width="1311" height="327" viewBox="0 0 1311 327" fill="none" xmlns="http://www.w3.org/2000/svg">
<rect x="-52" y="52" width="1121" height="223" rx="50" fill="#76C8CB"/>
<path d="M195.39 192H166.32V131.7H195.39C214.74 131.7 226.98 142.95 226.98 161.85C226.98 180.75 214.74 192 195.39 192ZM195.39 143.85H179.82V179.85H195.39C207.63 179.85 212.58 176.34 212.58 161.85C212.58 147.36 207.63 143.85 195.39 143.85ZM256.866 192.9C241.476 192.9 231.126 183.72 231.126 169.5C231.126 155.1 241.476 146.01 256.866 146.01C272.256 146.01 282.606 155.1 282.606 169.5C282.606 183.72 272.256 192.9 256.866 192.9ZM256.866 180.93C265.956 180.93 269.196 177.42 269.196 169.5C269.196 161.58 265.956 157.89 256.866 157.89C247.686 157.89 244.536 161.58 244.536 169.5C244.536 177.42 247.686 180.93 256.866 180.93ZM312.15 192.9C296.67 192.9 286.77 183.72 286.77 169.5C286.77 155.1 296.67 146.01 312.15 146.01C326.64 146.01 336.54 153.75 336.54 165.45V166.71H323.13V165.99C323.13 160.23 318.9 158.16 311.88 158.16C303.87 158.16 300.18 161.13 300.18 169.5C300.18 177.78 303.87 180.75 311.88 180.75C318.9 180.75 323.13 178.68 323.13 172.92V172.2H336.54V173.46C336.54 185.07 326.64 192.9 312.15 192.9ZM360.978 192.9C348.288 192.9 342.258 185.07 342.258 174.99V146.91H355.758V170.49C355.758 177.78 358.818 180.84 367.368 180.84C376.188 180.84 379.338 177.42 379.338 169.77V146.91H392.838V192H380.238V178.23H379.518C378.348 185.79 372.858 192.9 360.978 192.9ZM413.241 192H399.741V146.91H412.251V160.59H412.971C414.051 153.03 418.551 146.01 429.891 146.01C440.331 146.01 445.641 152.4 446.631 160.77H447.441C448.521 153.12 453.111 146.01 464.721 146.01C476.331 146.01 482.001 153.66 482.001 163.92V192H468.501V168.42C468.501 160.95 465.891 158.16 458.151 158.16C449.961 158.16 447.621 161.4 447.621 169.23V192H434.121V168.42C434.121 160.95 431.511 158.16 423.771 158.16C415.581 158.16 413.241 161.4 413.241 169.23V192ZM512.802 192.9C497.772 192.9 487.512 185.52 487.512 169.5C487.512 155.1 497.682 146.01 512.532 146.01C527.292 146.01 537.102 153.75 537.102 167.88C537.102 169.5 536.922 170.67 536.742 172.2H500.022C500.382 179.13 503.622 182.1 512.352 182.1C520.362 182.1 523.152 180.03 523.152 176.16V175.26H536.652V176.25C536.652 186.06 527.112 192.9 512.802 192.9ZM512.262 156.54C504.252 156.54 500.832 159.24 500.202 165.09H524.142C523.782 159.15 520.182 156.54 512.262 156.54ZM556.327 192H542.827V146.91H555.337V160.77H556.147C557.317 153.21 562.717 146.01 574.507 146.01C586.837 146.01 592.687 153.93 592.687 163.92V192H579.187V168.42C579.187 161.22 576.217 158.16 567.937 158.16C559.387 158.16 556.327 161.58 556.327 169.23V192ZM631.286 192H620.126C609.596 192 603.206 187.05 603.206 175.71V158.07H596.096V146.91H603.206V138.18H616.706V146.91H631.286V158.07H616.706V174.18C616.706 178.68 618.416 179.85 623.186 179.85H631.286V192ZM666.312 141.6H651.822L663.612 129.9H682.962L666.312 141.6ZM650.202 192.9C640.482 192.9 634.632 188.4 634.632 180.84C634.632 174.18 639.582 170.04 649.212 169.05L668.562 167.07V165.36C668.562 159.51 665.952 157.89 658.752 157.89C651.912 157.89 649.122 159.69 649.122 164.82V165.18H635.532V164.91C635.532 153.75 644.892 146.01 659.742 146.01C674.772 146.01 681.882 153.75 681.882 165.54V192H669.282V181.65H668.562C666.492 188.67 660.192 192.9 650.202 192.9ZM648.222 179.94C648.222 182.37 650.112 183.36 654.072 183.36C663.252 183.36 668.202 181.2 668.562 174.81L652.902 176.61C649.662 176.88 648.222 177.78 648.222 179.94ZM702.225 192H688.725V146.91H701.235V158.88H702.045C703.305 151.59 708.075 146.01 717.165 146.01C727.245 146.01 731.385 152.94 731.385 161.76V169.23H717.885V164.55C717.885 159.6 715.905 157.44 710.415 157.44C704.385 157.44 702.225 160.23 702.225 165.9V192ZM749.774 142.32H736.274V131.7H749.774V142.32ZM749.774 192H736.274V146.91H749.774V192ZM780.87 192.9C765.48 192.9 755.13 183.72 755.13 169.5C755.13 155.1 765.48 146.01 780.87 146.01C796.26 146.01 806.61 155.1 806.61 169.5C806.61 183.72 796.26 192.9 780.87 192.9ZM780.87 180.93C789.96 180.93 793.2 177.42 793.2 169.5C793.2 161.58 789.96 157.89 780.87 157.89C771.69 157.89 768.54 161.58 768.54 169.5C768.54 177.42 771.69 180.93 780.87 180.93ZM834.893 192.9C819.683 192.9 811.313 186.96 811.313 176.52V176.25H824.813V177.06C824.813 181.11 827.333 182.19 834.983 182.19C842.183 182.19 843.893 181.02 843.893 178.32C843.893 175.8 842.543 175.08 837.233 174.36L824.543 172.83C815.543 171.84 810.503 167.79 810.503 160.23C810.503 152.31 817.253 146.01 832.733 146.01C847.493 146.01 855.863 151.59 855.863 162.57V162.84H842.363V162.3C842.363 158.61 840.563 156.72 832.283 156.72C825.533 156.72 823.823 157.89 823.823 160.77C823.823 163.11 825.083 164.1 831.023 164.82L840.653 165.99C852.713 167.34 857.213 171.39 857.213 178.86C857.213 187.32 848.843 192.9 834.893 192.9Z" fill="white"/>
<path d="M1161.45 85.0831C1161.45 85.0831 1173.18 86.0105 1188.85 70.9711C1191.26 66.2537 1194.36 60.9718 1198.25 55.448C1203.36 48.3113 1208.58 42.5858 1213.32 38.0297C1215.13 36.4975 1217.38 34.8443 1220.19 33.3122C1225.41 30.4494 1230.36 29.1996 1233.89 28.5948V30.4898C1230.96 33.6348 1228.03 36.7797 1225.09 39.8844C1222.36 43.1906 1218.54 48.5532 1216.29 55.8914C1214.41 61.9394 1214.81 65.3264 1213.52 72.1808C1212.6 77.0595 1210.75 84.1155 1206.49 92.5827L1197.69 106.09L1194.76 108.59C1194.76 108.59 1220.19 108.59 1237.83 94.4778C1237.83 94.4778 1264.27 79.4384 1277.97 78.4707L1286.77 79.398C1286.77 79.398 1287.73 81.2931 1278.93 84.1155C1270.13 86.9379 1260.33 96.3325 1260.33 96.3325C1260.33 96.3325 1249.56 107.622 1248.6 112.34C1248.6 112.34 1238.79 126.452 1231 129.274C1225.78 131.774 1220.55 134.274 1215.33 136.814L1216.29 138.709C1216.29 138.709 1223.16 142.459 1231.96 143.426C1231.96 143.426 1246.63 145.321 1261.33 141.531L1280.9 138.709C1280.9 138.709 1290.7 137.782 1297.53 138.709C1300.15 139.354 1302.76 139.959 1305.37 140.604C1307.02 141.531 1308.62 142.499 1310.27 143.426C1310.67 143.87 1311.15 144.555 1310.95 145.16C1310.75 145.725 1309.83 146.249 1307.34 146.249H1301.47L1283.87 149.071C1283.87 149.071 1270.17 153.789 1260.37 161.288C1260.37 161.288 1244.7 170.683 1230.03 171.65C1215.37 172.578 1217.3 171.65 1217.3 171.65V173.545C1217.3 173.545 1231 187.657 1245.66 189.552C1245.66 189.552 1276.96 195.197 1276.96 196.125C1276.96 196.125 1287.73 198.02 1301.43 209.309C1301.43 209.309 1306.33 213.059 1300.47 214.027C1300.47 214.027 1287.73 206.487 1283.83 207.455C1283.83 207.455 1256.43 206.527 1252.53 209.35C1252.53 209.35 1231.96 214.067 1219.27 210.277L1206.53 205.56C1206.53 205.56 1201.63 205.56 1205.57 211.204C1209.5 216.849 1216.33 226.244 1216.33 226.244C1216.33 226.244 1227.1 234.711 1236.9 240.356C1236.9 240.356 1247.67 245.073 1254.5 255.395C1254.5 255.395 1261.37 263.862 1263.3 269.507C1265.23 275.152 1259.4 271.402 1259.4 271.402C1259.4 271.402 1247.67 258.217 1237.87 255.395C1228.07 252.573 1215.37 251.645 1215.37 251.645C1215.37 251.645 1187.97 245.073 1179.17 231.889C1179.17 231.889 1173.3 228.139 1174.27 241.283C1175.23 254.427 1180.13 261.967 1180.13 261.967C1180.13 261.967 1194.8 279.829 1196.77 288.296C1196.77 288.296 1200.66 302.408 1199.7 308.053C1198.74 313.698 1196.77 310.876 1196.77 310.876C1196.77 310.876 1191.87 298.659 1189.9 296.763C1187.93 294.868 1178.16 283.579 1171.29 279.829C1164.42 276.079 1158.56 272.289 1158.56 272.289C1156.87 270.999 1154.18 268.781 1151.33 265.596C1142.17 255.315 1141.56 246.162 1137.99 245.96C1135.98 245.839 1132.84 248.46 1128.18 262.895C1128.18 262.895 1127.22 281.724 1129.15 287.329C1131.08 292.933 1127.18 312.73 1127.18 312.73C1127.18 312.73 1122.28 324.423 1120.31 326.56C1118.34 328.737 1118.34 322.125 1118.34 322.125C1118.34 322.125 1122.24 306.118 1115.41 295.796C1108.58 285.474 1105.6 279.789 1105.6 279.789L1098.73 269.427C1098.73 269.427 1096.76 250.597 1096.76 244.025C1096.76 237.453 1076.19 260.032 1077.2 260.032C1077.2 260.032 1072.3 263.782 1068.4 281.684C1064.5 299.546 1042.97 312.73 1042.97 312.73C1042.97 312.73 1037.1 314.625 1042 308.013C1046.9 301.4 1050.8 293.901 1050.8 293.901C1050.8 293.901 1050.8 261.927 1049.84 256.282C1048.87 250.637 1055.7 236.525 1055.7 236.525C1055.7 236.525 1063.54 228.058 1057.67 228.058C1051.8 228.058 1036.14 235.598 1036.14 235.598C1036.14 235.598 1019.5 247.815 1009.7 257.25C999.895 266.685 992.1 268.539 992.1 268.539L981.332 271.362C981.332 271.362 969.6 275.112 982.297 266.645C995.033 258.177 1000.9 247.815 1000.9 247.815C1000.9 247.815 1007.77 223.381 1017.53 213.946C1027.3 204.511 1032.2 204.551 1032.2 204.551C1032.2 204.551 1035.13 200.802 1024.36 199.834C1013.6 198.866 993.064 203.584 993.064 203.584C993.064 203.584 966.627 214.873 961.766 214.873H942.199C942.199 214.873 930.467 212.051 943.163 209.229C955.9 206.406 961.766 203.584 961.766 203.584L978.399 191.367L991.136 179.15C991.136 179.15 1003.87 173.505 1008.73 172.578C1013.6 171.65 1020.47 168.828 1020.47 168.828C1020.47 168.828 1023.4 167.901 1015.56 164.11C1007.73 160.361 994.029 156.571 994.029 156.571C994.029 156.571 952.927 156.571 948.989 154.676C945.052 152.781 930.387 148.103 930.387 148.103C930.387 148.103 921.588 140.564 932.355 143.386C943.123 146.208 953.891 145.281 953.891 145.281L964.659 143.386C964.659 143.386 987.158 134.919 994.993 133.991C1002.83 133.064 1021.43 133.064 1021.43 133.064C1023.08 133.387 1024.68 133.709 1026.33 133.991C1026.33 133.991 1018.5 120.807 1010.66 116.13C1002.83 111.412 980.328 103.913 980.328 103.913C980.328 103.913 959.757 92.623 959.757 89.8006L952.886 81.3334C952.886 81.3334 950.918 76.6159 957.788 80.406C964.659 84.1961 973.457 88.8732 973.457 88.8732C973.457 88.8732 976.391 91.6957 1002.83 91.6957C1029.26 91.6957 1045.9 103.913 1045.9 103.913H1047.87C1047.87 103.913 1050.8 91.6957 1042 82.2608C1033.2 72.8259 1013.64 52.1819 1013.64 52.1819C1013.64 52.1819 1007.77 45.6099 1007.77 29.6028L1020.51 43.7148C1020.51 43.7148 1030.31 52.182 1056.71 61.5766C1056.71 61.5766 1065.51 64.399 1080.21 83.2284H1083.14L1087.04 72.8661C1087.04 72.8661 1085.07 54.0368 1081.17 43.7148C1077.28 33.3929 1075.31 26.7803 1075.31 26.7803C1075.31 26.7803 1075.31 9.84594 1077.28 7.02353C1077.28 7.02353 1079.25 -7.08849 1082.18 7.02353C1085.11 21.1356 1090.01 26.7803 1090.01 26.7803C1090.01 26.7803 1107.61 45.6098 1110.59 50.2869C1113.56 54.964 1119.02 64.1168 1119.02 64.1168C1119.02 64.1168 1122.32 72.8662 1121.35 77.5433C1120.39 82.2204 1136.02 62.504 1136.02 62.504C1136.02 62.504 1138.95 56.8591 1142.89 26.7803C1142.89 26.7803 1144.86 15.4907 1155.62 4.20108C1166.39 -7.08854 1159.52 7.95082 1159.52 7.95082C1159.52 7.95082 1152.65 27.7077 1159.52 38.9973C1166.39 50.2869 1165.39 64.3989 1165.39 64.3989C1165.39 64.3989 1166.35 77.5836 1161.49 85.0831H1161.45Z" fill="white"/>
</svg>
