<svg width="261" height="221" viewBox="0 0 261 221" fill="none" xmlns="http://www.w3.org/2000/svg">
<mask id="path-1-inside-1_153_334" fill="white">
<path d="M159.353 57.5027C159.353 57.5027 167.327 58.1294 177.977 47.9652C179.616 44.7769 181.719 41.2073 184.368 37.474C187.836 32.6508 191.386 28.7813 194.608 25.702C195.837 24.6665 197.366 23.5492 199.278 22.5137C202.828 20.579 206.187 19.7343 208.59 19.3255V20.6063C206.597 22.7318 204.603 24.8572 202.61 26.9555C200.753 29.19 198.158 32.8142 196.629 37.7737C195.346 41.8612 195.619 44.1502 194.745 48.7827C194.117 52.08 192.861 56.8487 189.966 62.5712L183.985 71.7L181.992 73.3894C181.992 73.3894 199.278 73.3894 211.267 63.852C211.267 63.852 229.236 53.6877 238.548 53.0337L244.528 53.6604C244.528 53.6604 245.184 54.9412 239.203 56.8487C233.223 58.7562 226.559 65.1054 226.559 65.1054C226.559 65.1054 219.241 72.7354 218.585 75.9237C218.585 75.9237 211.922 85.4612 206.624 87.3687C203.074 89.0582 199.524 90.7477 195.974 92.4644L196.629 93.7451C196.629 93.7451 201.299 96.2793 207.279 96.9333C207.279 96.9333 217.247 98.2141 227.242 95.6526L240.541 93.7451C240.541 93.7451 247.204 93.1184 251.847 93.7451C253.622 94.1812 255.397 94.5899 257.172 95.0259C258.292 95.6526 259.384 96.3066 260.504 96.9333C260.777 97.2331 261.105 97.6964 260.968 98.1052C260.831 98.4867 260.203 98.8409 258.51 98.8409H254.523L242.562 100.748C242.562 100.748 233.25 103.937 226.587 109.005C226.587 109.005 215.936 115.354 205.969 116.008C196.001 116.635 197.312 116.008 197.312 116.008V117.289C197.312 117.289 206.624 126.827 216.592 128.107C216.592 128.107 237.865 131.922 237.865 132.549C237.865 132.549 245.184 133.83 254.496 141.46C254.496 141.46 257.828 143.994 253.84 144.648C253.84 144.648 245.184 139.552 242.535 140.206C242.535 140.206 223.91 139.58 221.261 141.487C221.261 141.487 207.279 144.675 198.65 142.114L189.993 138.926C189.993 138.926 186.662 138.926 189.338 142.741C192.014 146.556 196.656 152.905 196.656 152.905C196.656 152.905 203.975 158.627 210.638 162.442C210.638 162.442 217.957 165.63 222.6 172.606C222.6 172.606 227.269 178.329 228.58 182.144C229.891 185.959 225.931 183.425 225.931 183.425C225.931 183.425 217.957 174.514 211.294 172.606C204.631 170.699 196.001 170.072 196.001 170.072C196.001 170.072 177.377 165.631 171.396 156.72C171.396 156.72 167.409 154.185 168.064 163.069C168.72 171.952 172.051 177.048 172.051 177.048C172.051 177.048 182.019 189.12 183.357 194.842C183.357 194.842 186.006 204.38 185.351 208.195C184.695 212.01 183.357 210.102 183.357 210.102C183.357 210.102 180.026 201.846 178.688 200.565C177.349 199.284 170.713 191.654 166.044 189.12C161.374 186.586 157.387 184.024 157.387 184.024C156.24 183.152 154.41 181.654 152.471 179.501C146.245 172.552 145.835 166.366 143.405 166.23C142.039 166.148 139.909 167.92 136.742 177.675C136.742 177.675 136.086 190.401 137.397 194.189C138.708 197.976 136.059 211.356 136.059 211.356C136.059 211.356 132.727 219.258 131.389 220.703C130.051 222.174 130.051 217.705 130.051 217.705C130.051 217.705 132.7 206.887 128.057 199.911C123.415 192.935 121.394 189.093 121.394 189.093L116.724 182.09C116.724 182.09 115.386 169.364 115.386 164.922C115.386 160.48 101.404 175.74 102.087 175.74C102.087 175.74 98.7555 178.274 96.1066 190.373C93.4576 202.445 78.8203 211.356 78.8203 211.356C78.8203 211.356 74.8333 212.637 78.1649 208.168C81.4965 203.699 84.1454 198.63 84.1454 198.63C84.1454 198.63 84.1455 177.021 83.4901 173.206C82.8346 169.391 87.4771 159.853 87.4771 159.853C87.4771 159.853 92.8022 154.131 88.8152 154.131C84.8282 154.131 74.1778 159.227 74.1778 159.227C74.1778 159.227 62.8721 167.484 56.2088 173.86C49.5456 180.236 44.2477 181.49 44.2477 181.49L36.9291 183.397C36.9291 183.397 28.955 185.932 37.5845 180.209C46.2413 174.487 50.2283 167.483 50.2283 167.483C50.2283 167.483 54.898 150.97 61.534 144.594C68.17 138.217 71.5016 138.244 71.5016 138.244C71.5016 138.244 73.4952 135.71 66.1765 135.056C58.8578 134.402 44.9031 137.59 44.9031 137.59C44.9031 137.59 26.9342 145.22 23.6298 145.22H10.3306C10.3306 145.22 2.35648 143.313 10.986 141.405C19.6428 139.498 23.6298 137.59 23.6298 137.59L34.9355 129.334L43.5923 121.077C43.5923 121.077 52.2491 117.262 55.5535 116.635C58.8578 116.008 63.5275 114.101 63.5275 114.101C63.5275 114.101 65.5211 113.474 60.1959 110.913C54.8708 108.378 45.5585 105.817 45.5585 105.817C45.5585 105.817 17.6219 105.817 14.9457 104.536C12.2695 103.255 2.30189 100.094 2.30189 100.094C2.30189 100.094 -3.6787 94.9987 3.63998 96.9062C10.9587 98.8137 18.2773 98.1869 18.2773 98.1869L25.596 96.9062C25.596 96.9062 40.8888 91.1836 46.2139 90.5569C51.5391 89.9301 64.1829 89.9302 64.1829 89.9302C65.3026 90.1482 66.3949 90.3661 67.5146 90.5569C67.5146 90.5569 62.1894 81.6462 56.8643 78.4852C51.5391 75.2969 36.2463 70.2284 36.2463 70.2284C36.2463 70.2284 22.2644 62.5984 22.2644 60.6909L17.5946 54.9684C17.5946 54.9684 16.2565 51.7802 20.9263 54.3417C25.596 56.9032 31.5766 60.0642 31.5766 60.0642C31.5766 60.0642 33.5701 61.9717 51.5391 61.9717C69.5081 61.9717 80.8138 70.2284 80.8138 70.2284H82.1519C82.1519 70.2284 84.1455 61.9717 78.1649 55.5952C72.1843 49.2187 58.8851 35.2667 58.8851 35.2667C58.8851 35.2667 54.898 30.825 54.898 20.0068L63.5548 29.5443C63.5548 29.5443 70.2181 35.2667 88.1598 41.616C88.1598 41.616 94.1404 43.5235 104.135 56.2492H106.129L108.778 49.2459C108.778 49.2459 107.44 36.5203 104.791 29.5443C102.142 22.5683 100.804 18.0993 100.804 18.0993C100.804 18.0993 100.804 6.65429 102.142 4.74679C102.142 4.74679 103.48 -4.79069 105.473 4.74679C107.467 14.2843 110.799 18.0993 110.799 18.0993C110.799 18.0993 122.76 30.8249 124.78 33.9859C126.801 37.1469 130.515 43.3327 130.515 43.3327C130.515 43.3327 132.755 49.2459 132.099 52.4069C131.444 55.5679 142.067 42.2428 142.067 42.2428C142.067 42.2428 144.06 38.4277 146.737 18.0993C146.737 18.0993 148.075 10.4692 155.393 2.83926C162.712 -4.79073 158.042 5.37349 158.042 5.37349C158.042 5.37349 153.373 18.726 158.042 26.356C162.712 33.986 162.029 43.5234 162.029 43.5234C162.029 43.5234 162.685 52.4342 159.38 57.5027H159.353Z"/>
</mask>
<path d="M159.353 57.5027C159.353 57.5027 167.327 58.1294 177.977 47.9652C179.616 44.7769 181.719 41.2073 184.368 37.474C187.836 32.6508 191.386 28.7813 194.608 25.702C195.837 24.6665 197.366 23.5492 199.278 22.5137C202.828 20.579 206.187 19.7343 208.59 19.3255V20.6063C206.597 22.7318 204.603 24.8572 202.61 26.9555C200.753 29.19 198.158 32.8142 196.629 37.7737C195.346 41.8612 195.619 44.1502 194.745 48.7827C194.117 52.08 192.861 56.8487 189.966 62.5712L183.985 71.7L181.992 73.3894C181.992 73.3894 199.278 73.3894 211.267 63.852C211.267 63.852 229.236 53.6877 238.548 53.0337L244.528 53.6604C244.528 53.6604 245.184 54.9412 239.203 56.8487C233.223 58.7562 226.559 65.1054 226.559 65.1054C226.559 65.1054 219.241 72.7354 218.585 75.9237C218.585 75.9237 211.922 85.4612 206.624 87.3687C203.074 89.0582 199.524 90.7477 195.974 92.4644L196.629 93.7451C196.629 93.7451 201.299 96.2793 207.279 96.9333C207.279 96.9333 217.247 98.2141 227.242 95.6526L240.541 93.7451C240.541 93.7451 247.204 93.1184 251.847 93.7451C253.622 94.1812 255.397 94.5899 257.172 95.0259C258.292 95.6526 259.384 96.3066 260.504 96.9333C260.777 97.2331 261.105 97.6964 260.968 98.1052C260.831 98.4867 260.203 98.8409 258.51 98.8409H254.523L242.562 100.748C242.562 100.748 233.25 103.937 226.587 109.005C226.587 109.005 215.936 115.354 205.969 116.008C196.001 116.635 197.312 116.008 197.312 116.008V117.289C197.312 117.289 206.624 126.827 216.592 128.107C216.592 128.107 237.865 131.922 237.865 132.549C237.865 132.549 245.184 133.83 254.496 141.46C254.496 141.46 257.828 143.994 253.84 144.648C253.84 144.648 245.184 139.552 242.535 140.206C242.535 140.206 223.91 139.58 221.261 141.487C221.261 141.487 207.279 144.675 198.65 142.114L189.993 138.926C189.993 138.926 186.662 138.926 189.338 142.741C192.014 146.556 196.656 152.905 196.656 152.905C196.656 152.905 203.975 158.627 210.638 162.442C210.638 162.442 217.957 165.63 222.6 172.606C222.6 172.606 227.269 178.329 228.58 182.144C229.891 185.959 225.931 183.425 225.931 183.425C225.931 183.425 217.957 174.514 211.294 172.606C204.631 170.699 196.001 170.072 196.001 170.072C196.001 170.072 177.377 165.631 171.396 156.72C171.396 156.72 167.409 154.185 168.064 163.069C168.72 171.952 172.051 177.048 172.051 177.048C172.051 177.048 182.019 189.12 183.357 194.842C183.357 194.842 186.006 204.38 185.351 208.195C184.695 212.01 183.357 210.102 183.357 210.102C183.357 210.102 180.026 201.846 178.688 200.565C177.349 199.284 170.713 191.654 166.044 189.12C161.374 186.586 157.387 184.024 157.387 184.024C156.24 183.152 154.41 181.654 152.471 179.501C146.245 172.552 145.835 166.366 143.405 166.23C142.039 166.148 139.909 167.92 136.742 177.675C136.742 177.675 136.086 190.401 137.397 194.189C138.708 197.976 136.059 211.356 136.059 211.356C136.059 211.356 132.727 219.258 131.389 220.703C130.051 222.174 130.051 217.705 130.051 217.705C130.051 217.705 132.7 206.887 128.057 199.911C123.415 192.935 121.394 189.093 121.394 189.093L116.724 182.09C116.724 182.09 115.386 169.364 115.386 164.922C115.386 160.48 101.404 175.74 102.087 175.74C102.087 175.74 98.7555 178.274 96.1066 190.373C93.4576 202.445 78.8203 211.356 78.8203 211.356C78.8203 211.356 74.8333 212.637 78.1649 208.168C81.4965 203.699 84.1454 198.63 84.1454 198.63C84.1454 198.63 84.1455 177.021 83.4901 173.206C82.8346 169.391 87.4771 159.853 87.4771 159.853C87.4771 159.853 92.8022 154.131 88.8152 154.131C84.8282 154.131 74.1778 159.227 74.1778 159.227C74.1778 159.227 62.8721 167.484 56.2088 173.86C49.5456 180.236 44.2477 181.49 44.2477 181.49L36.9291 183.397C36.9291 183.397 28.955 185.932 37.5845 180.209C46.2413 174.487 50.2283 167.483 50.2283 167.483C50.2283 167.483 54.898 150.97 61.534 144.594C68.17 138.217 71.5016 138.244 71.5016 138.244C71.5016 138.244 73.4952 135.71 66.1765 135.056C58.8578 134.402 44.9031 137.59 44.9031 137.59C44.9031 137.59 26.9342 145.22 23.6298 145.22H10.3306C10.3306 145.22 2.35648 143.313 10.986 141.405C19.6428 139.498 23.6298 137.59 23.6298 137.59L34.9355 129.334L43.5923 121.077C43.5923 121.077 52.2491 117.262 55.5535 116.635C58.8578 116.008 63.5275 114.101 63.5275 114.101C63.5275 114.101 65.5211 113.474 60.1959 110.913C54.8708 108.378 45.5585 105.817 45.5585 105.817C45.5585 105.817 17.6219 105.817 14.9457 104.536C12.2695 103.255 2.30189 100.094 2.30189 100.094C2.30189 100.094 -3.6787 94.9987 3.63998 96.9062C10.9587 98.8137 18.2773 98.1869 18.2773 98.1869L25.596 96.9062C25.596 96.9062 40.8888 91.1836 46.2139 90.5569C51.5391 89.9301 64.1829 89.9302 64.1829 89.9302C65.3026 90.1482 66.3949 90.3661 67.5146 90.5569C67.5146 90.5569 62.1894 81.6462 56.8643 78.4852C51.5391 75.2969 36.2463 70.2284 36.2463 70.2284C36.2463 70.2284 22.2644 62.5984 22.2644 60.6909L17.5946 54.9684C17.5946 54.9684 16.2565 51.7802 20.9263 54.3417C25.596 56.9032 31.5766 60.0642 31.5766 60.0642C31.5766 60.0642 33.5701 61.9717 51.5391 61.9717C69.5081 61.9717 80.8138 70.2284 80.8138 70.2284H82.1519C82.1519 70.2284 84.1455 61.9717 78.1649 55.5952C72.1843 49.2187 58.8851 35.2667 58.8851 35.2667C58.8851 35.2667 54.898 30.825 54.898 20.0068L63.5548 29.5443C63.5548 29.5443 70.2181 35.2667 88.1598 41.616C88.1598 41.616 94.1404 43.5235 104.135 56.2492H106.129L108.778 49.2459C108.778 49.2459 107.44 36.5203 104.791 29.5443C102.142 22.5683 100.804 18.0993 100.804 18.0993C100.804 18.0993 100.804 6.65429 102.142 4.74679C102.142 4.74679 103.48 -4.79069 105.473 4.74679C107.467 14.2843 110.799 18.0993 110.799 18.0993C110.799 18.0993 122.76 30.8249 124.78 33.9859C126.801 37.1469 130.515 43.3327 130.515 43.3327C130.515 43.3327 132.755 49.2459 132.099 52.4069C131.444 55.5679 142.067 42.2428 142.067 42.2428C142.067 42.2428 144.06 38.4277 146.737 18.0993C146.737 18.0993 148.075 10.4692 155.393 2.83926C162.712 -4.79073 158.042 5.37349 158.042 5.37349C158.042 5.37349 153.373 18.726 158.042 26.356C162.712 33.986 162.029 43.5234 162.029 43.5234C162.029 43.5234 162.685 52.4342 159.38 57.5027H159.353Z" stroke="#F2CD5E" stroke-width="4" mask="url(#path-1-inside-1_153_334)"/>
</svg>
