<svg width="917" height="262" viewBox="0 0 917 262" fill="none" xmlns="http://www.w3.org/2000/svg">
<rect x="-95" y="52" width="876" height="183" rx="50" fill="#76C8CB"/>
<path d="M210.01 172H160.6V111.7H174.1V159.85H210.01V172ZM228.944 122.32H215.444V111.7H228.944V122.32ZM228.944 172H215.444V126.91H228.944V172ZM269.58 172H252.93L232.41 126.91H247.44L260.94 158.86H261.84L275.43 126.91H290.19L269.58 172ZM307.254 172H293.754V126.91H306.264V138.88H307.074C308.334 131.59 313.104 126.01 322.194 126.01C332.274 126.01 336.414 132.94 336.414 141.76V149.23H322.914V144.55C322.914 139.6 320.934 137.44 315.444 137.44C309.414 137.44 307.254 140.23 307.254 145.9V172ZM365.333 172.9C349.943 172.9 339.593 163.72 339.593 149.5C339.593 135.1 349.943 126.01 365.333 126.01C380.723 126.01 391.073 135.1 391.073 149.5C391.073 163.72 380.723 172.9 365.333 172.9ZM365.333 160.93C374.423 160.93 377.663 157.42 377.663 149.5C377.663 141.58 374.423 137.89 365.333 137.89C356.153 137.89 353.003 141.58 353.003 149.5C353.003 157.42 356.153 160.93 365.333 160.93ZM419.356 172.9C404.146 172.9 395.776 166.96 395.776 156.52V156.25H409.276V157.06C409.276 161.11 411.796 162.19 419.446 162.19C426.646 162.19 428.356 161.02 428.356 158.32C428.356 155.8 427.006 155.08 421.696 154.36L409.006 152.83C400.006 151.84 394.966 147.79 394.966 140.23C394.966 132.31 401.716 126.01 417.196 126.01C431.956 126.01 440.326 131.59 440.326 142.57V142.84H426.826V142.3C426.826 138.61 425.026 136.72 416.746 136.72C409.996 136.72 408.286 137.89 408.286 140.77C408.286 143.11 409.546 144.1 415.486 144.82L425.116 145.99C437.176 147.34 441.676 151.39 441.676 158.86C441.676 167.32 433.306 172.9 419.356 172.9Z" fill="white"/>
<path d="M797.049 68.1706C797.049 68.1706 806.459 68.9136 819.027 56.8637C820.961 53.084 823.442 48.852 826.568 44.4262C830.661 38.7082 834.85 34.1208 838.653 30.4703C840.103 29.2427 841.908 27.9181 844.163 26.6905C848.353 24.3968 852.317 23.3954 855.153 22.9108V24.4292C852.8 26.949 850.448 29.4688 848.095 31.9563C845.904 34.6053 842.842 38.9019 841.037 44.7815C839.523 49.6273 839.845 52.341 838.814 57.8329C838.073 61.7419 836.59 67.3953 833.174 74.1794L826.117 85.0018L823.764 87.0047C823.764 87.0047 844.163 87.0047 858.311 75.6978C858.311 75.6978 879.516 63.6479 890.505 62.8726L897.562 63.6155C897.562 63.6155 898.336 65.1339 891.278 67.3953C884.221 69.6567 876.357 77.1838 876.357 77.1838C876.357 77.1838 867.721 86.2293 866.947 90.009C866.947 90.009 859.084 101.316 852.832 103.577C848.643 105.58 844.453 107.583 840.264 109.618L841.037 111.137C841.037 111.137 846.548 114.141 853.606 114.916C853.606 114.916 865.368 116.435 877.163 113.398L892.857 111.137C892.857 111.137 900.72 110.394 906.199 111.137C908.293 111.654 910.388 112.138 912.483 112.655C913.804 113.398 915.093 114.173 916.414 114.916C916.737 115.272 917.123 115.821 916.962 116.306C916.801 116.758 916.06 117.178 914.062 117.178H909.357L895.242 119.439C895.242 119.439 884.253 123.219 876.39 129.228C876.39 129.228 863.821 136.755 852.059 137.53C840.296 138.273 841.843 137.53 841.843 137.53V139.049C841.843 139.049 852.832 150.355 864.595 151.874C864.595 151.874 889.699 156.397 889.699 157.14C889.699 157.14 898.336 158.658 909.325 167.703C909.325 167.703 913.256 170.708 908.551 171.483C908.551 171.483 898.336 165.442 895.21 166.218C895.21 166.218 873.231 165.474 870.105 167.736C870.105 167.736 853.606 171.515 843.422 168.479L833.207 164.699C833.207 164.699 829.275 164.699 832.433 169.222C835.591 173.745 841.07 181.272 841.07 181.272C841.07 181.272 849.706 188.056 857.569 192.579C857.569 192.579 866.206 196.358 871.685 204.628C871.685 204.628 877.195 211.413 878.742 215.935C880.289 220.458 875.616 217.454 875.616 217.454C875.616 217.454 866.206 206.89 858.343 204.628C850.48 202.367 840.296 201.624 840.296 201.624C840.296 201.624 818.318 196.358 811.261 185.795C811.261 185.795 806.556 182.79 807.329 193.322C808.102 203.853 812.034 209.894 812.034 209.894C812.034 209.894 823.797 224.206 825.376 230.99C825.376 230.99 828.502 242.297 827.728 246.819C826.955 251.342 825.376 249.081 825.376 249.081C825.376 249.081 821.444 239.292 819.865 237.774C818.286 236.255 810.455 227.21 804.944 224.206C799.434 221.201 794.729 218.164 794.729 218.164C793.375 217.131 791.216 215.354 788.928 212.802C781.58 204.564 781.097 197.231 778.229 197.069C776.617 196.972 774.104 199.072 770.366 210.637C770.366 210.637 769.592 225.724 771.139 230.214C772.686 234.705 769.56 250.567 769.56 250.567C769.56 250.567 765.628 259.935 764.049 261.648C762.47 263.392 762.47 258.094 762.47 258.094C762.47 258.094 765.596 245.269 760.118 236.998C754.639 228.728 752.255 224.173 752.255 224.173L746.744 215.871C746.744 215.871 745.165 200.784 745.165 195.518C745.165 190.253 728.665 208.344 729.471 208.344C729.471 208.344 725.539 211.348 722.413 225.692C719.287 240.003 702.014 250.567 702.014 250.567C702.014 250.567 697.309 252.085 701.241 246.787C705.172 241.489 708.298 235.48 708.298 235.48C708.298 235.48 708.298 209.862 707.525 205.339C706.751 200.817 712.23 189.51 712.23 189.51C712.23 189.51 718.514 182.726 713.809 182.726C709.104 182.726 696.536 188.767 696.536 188.767C696.536 188.767 683.194 198.555 675.331 206.115C667.468 213.674 661.216 215.16 661.216 215.16L652.579 217.421C652.579 217.421 643.169 220.426 653.353 213.642C663.568 206.858 668.273 198.555 668.273 198.555C668.273 198.555 673.784 178.978 681.615 171.419C689.446 163.859 693.377 163.891 693.377 163.891C693.377 163.891 695.73 160.887 687.093 160.112C678.457 159.336 661.989 163.116 661.989 163.116C661.989 163.116 640.784 172.162 636.885 172.162H621.191C621.191 172.162 611.781 169.9 621.964 167.639C632.18 165.378 636.885 163.116 636.885 163.116L650.227 153.328L660.442 143.539C660.442 143.539 670.658 139.016 674.557 138.273C678.457 137.53 683.967 135.269 683.967 135.269C683.967 135.269 686.32 134.526 680.036 131.489C673.752 128.485 662.763 125.448 662.763 125.448C662.763 125.448 629.795 125.448 626.637 123.93C623.479 122.411 611.716 118.664 611.716 118.664C611.716 118.664 604.659 112.623 613.295 114.884C621.932 117.146 630.569 116.403 630.569 116.403L639.205 114.884C639.205 114.884 657.252 108.1 663.536 107.357C669.82 106.614 684.741 106.614 684.741 106.614C686.062 106.872 687.351 107.131 688.672 107.357C688.672 107.357 682.388 96.7932 676.104 93.0458C669.82 89.266 651.773 83.2572 651.773 83.2572C651.773 83.2572 635.274 74.2117 635.274 71.9504L629.763 65.1662C629.763 65.1662 628.184 61.3864 633.695 64.4231C639.205 67.4598 646.263 71.2073 646.263 71.2073C646.263 71.2073 648.615 73.4687 669.82 73.4687C691.025 73.4687 704.367 83.2572 704.367 83.2572H705.946C705.946 83.2572 708.298 73.4687 701.241 65.9093C694.183 58.3498 678.489 41.8094 678.489 41.8094C678.489 41.8094 673.784 36.5437 673.784 23.7184L684 35.0253C684 35.0253 691.863 41.8094 713.035 49.3366C713.035 49.3366 720.093 51.5979 731.888 66.6846H734.24L737.366 58.3821C737.366 58.3821 735.787 43.2955 732.661 35.0253C729.535 26.7552 727.956 21.457 727.956 21.457C727.956 21.457 727.956 7.88879 729.535 5.62742C729.535 5.62742 731.114 -5.67946 733.467 5.62742C735.819 16.9343 739.751 21.457 739.751 21.457C739.751 21.457 753.866 36.5436 756.251 40.291C758.635 44.0384 763.018 51.3718 763.018 51.3718C763.018 51.3718 765.661 58.3821 764.887 62.1295C764.114 65.8769 776.65 50.0796 776.65 50.0796C776.65 50.0796 779.002 45.5568 782.16 21.457C782.16 21.457 783.739 12.4115 792.376 3.366C801.013 -5.6795 795.502 6.37038 795.502 6.37038C795.502 6.37038 789.991 22.2001 795.502 31.2456C801.013 40.2911 800.207 51.5979 800.207 51.5979C800.207 51.5979 800.98 62.1618 797.081 68.1706H797.049Z" fill="white"/>
</svg>
