<svg width="466" height="77" viewBox="0 0 466 77" fill="none" xmlns="http://www.w3.org/2000/svg">
<path d="M49.69 75H0.3V1.3H47.16C52.5133 1.3 56.95 1.99666 60.47 3.39C63.99 4.71 66.63 6.69 68.39 9.33C70.15 11.97 71.03 15.2333 71.03 19.12C71.03 23.8133 69.6367 27.7 66.85 30.78C64.1367 33.86 59.4067 35.5467 52.66 35.84V36.94C60.0667 37.2333 65.53 38.9567 69.05 42.11C72.6433 45.2633 74.44 49.4067 74.44 54.54C74.44 58.6467 73.5967 62.24 71.91 65.32C70.2233 68.4 67.5467 70.7833 63.88 72.47C60.2867 74.1567 55.5567 75 49.69 75ZM20.87 46.18V56.41H47.05C49.5433 56.41 51.23 56.08 52.11 55.42C53.0633 54.6867 53.54 53.2933 53.54 51.24C53.54 49.1867 53.1 47.83 52.22 47.17C51.34 46.51 49.6167 46.18 47.05 46.18H20.87ZM20.87 19.89V29.24H44.96C47.0867 29.24 48.5167 28.91 49.25 28.25C49.9833 27.5167 50.35 26.3067 50.35 24.62C50.35 22.9333 49.8733 21.7233 48.92 20.99C48.04 20.2567 46.5367 19.89 44.41 19.89H20.87ZM99.5054 75H78.8254V19.56H98.1854V35.4L99.5054 35.95V75ZM99.5054 41.89H95.6554V34.08H99.2854C99.7987 31 100.789 28.2867 102.255 25.94C103.722 23.5933 105.702 21.76 108.195 20.44C110.762 19.12 113.879 18.46 117.545 18.46C121.652 18.46 124.952 19.3033 127.445 20.99C129.939 22.6033 131.735 24.84 132.835 27.7C134.009 30.56 134.595 33.86 134.595 37.6V48.6H113.915V42.11C113.915 39.7633 113.402 38.15 112.375 37.27C111.349 36.3167 109.479 35.84 106.765 35.84C103.979 35.84 102.072 36.3167 101.045 37.27C100.019 38.15 99.5054 39.69 99.5054 41.89ZM198.272 75H178.912V62.68H177.812V42.99C177.812 40.2033 177.078 38.4433 175.612 37.71C174.218 36.9033 171.688 36.5 168.022 36.5C164.648 36.5 162.302 36.9033 160.982 37.71C159.735 38.5167 159.112 40.0933 159.112 42.44V42.88H138.432V42.66C138.432 37.7467 139.715 33.4933 142.282 29.9C144.848 26.2333 148.478 23.41 153.172 21.43C157.865 19.45 163.328 18.46 169.562 18.46C176.015 18.46 181.368 19.4867 185.622 21.54C189.875 23.52 193.028 26.38 195.082 30.12C197.208 33.7867 198.272 38.2233 198.272 43.43V75ZM156.912 76.1C150.678 76.1 145.838 74.7433 142.392 72.03C139.018 69.3167 137.332 65.6133 137.332 60.92C137.332 58.28 137.955 55.9333 139.202 53.88C140.448 51.8267 142.392 50.1767 145.032 48.93C147.672 47.61 151.082 46.73 155.262 46.29L178.912 43.98V55.42L160.762 57.51C159.808 57.5833 159.112 57.8033 158.672 58.17C158.305 58.5367 158.122 59.0133 158.122 59.6C158.122 60.48 158.525 61.0667 159.332 61.36C160.212 61.58 161.458 61.69 163.072 61.69C166.738 61.69 169.635 61.5067 171.762 61.14C173.888 60.7 175.428 59.93 176.382 58.83C177.335 57.73 177.812 56.1533 177.812 54.1L179.352 53.66V63.34H177.812C176.785 67.2267 174.548 70.3433 171.102 72.69C167.655 74.9633 162.925 76.1 156.912 76.1ZM234.212 76.1C224.458 76.1 217.015 74.3033 211.882 70.71C206.748 67.1167 204.182 62.13 204.182 55.75V55.31H224.862V56.41C224.862 57.95 225.485 58.9033 226.732 59.27C228.052 59.6367 230.582 59.82 234.322 59.82C237.915 59.82 240.188 59.6367 241.142 59.27C242.095 58.83 242.572 58.1333 242.572 57.18C242.572 56.3 242.205 55.7133 241.472 55.42C240.738 55.0533 239.088 54.7233 236.522 54.43L220.462 52.67C214.742 52.0833 210.378 50.47 207.372 47.83C204.365 45.1167 202.862 41.4133 202.862 36.72C202.862 33.42 203.778 30.4133 205.612 27.7C207.518 24.9133 210.562 22.6767 214.742 20.99C218.995 19.3033 224.568 18.46 231.462 18.46C237.915 18.46 243.305 19.23 247.632 20.77C252.032 22.31 255.332 24.62 257.532 27.7C259.805 30.7067 260.942 34.4833 260.942 39.03V39.47H240.262V38.81C240.262 37.8567 240.042 37.0867 239.602 36.5C239.235 35.84 238.355 35.3633 236.962 35.07C235.642 34.7767 233.588 34.63 230.802 34.63C227.428 34.63 225.302 34.8867 224.422 35.4C223.615 35.84 223.212 36.5733 223.212 37.6C223.212 38.3333 223.615 38.92 224.422 39.36C225.302 39.8 227.355 40.2033 230.582 40.57L241.582 41.78C249.648 42.66 255.222 44.4567 258.302 47.17C261.382 49.8833 262.922 53.5867 262.922 58.28C262.922 61.7267 261.785 64.8067 259.512 67.52C257.312 70.16 254.085 72.25 249.832 73.79C245.578 75.33 240.372 76.1 234.212 76.1ZM288.568 75H267.888V19.56H288.568V75ZM288.568 14.5H267.888V1.3H288.568V14.5ZM315.853 75H295.173V1.3H315.853V75ZM357.658 76.1C349.812 76.1 343.395 74.78 338.408 72.14C333.422 69.5 329.718 65.3567 327.298 59.71C324.952 54.0633 323.778 46.6567 323.778 37.49C323.778 31.99 324.438 26.9667 325.758 22.42C327.152 17.8733 329.205 13.95 331.918 10.65C334.705 7.27666 338.188 4.71 342.368 2.95C346.622 1.11667 351.645 0.199999 357.438 0.199999C363.012 0.199999 367.998 1.15333 372.398 3.06C376.872 4.89333 380.355 7.57 382.848 11.09C385.342 14.5367 386.588 18.7533 386.588 23.74V24.51H378.118V23.74C378.118 20.7333 377.458 18.02 376.138 15.6C374.818 13.1067 372.655 11.1633 369.648 9.76999C366.642 8.37666 362.572 7.67999 357.438 7.67999C351.205 7.67999 346.218 8.78 342.478 10.98C338.812 13.1067 336.135 16.37 334.448 20.77C332.762 25.0967 331.918 30.56 331.918 37.16V43.76H332.688C333.568 41.0467 335.218 38.59 337.638 36.39C340.058 34.19 343.175 32.4667 346.988 31.22C350.802 29.9733 355.128 29.35 359.968 29.35C365.982 29.35 371.115 30.3033 375.368 32.21C379.622 34.0433 382.885 36.6833 385.158 40.13C387.432 43.5767 388.568 47.6833 388.568 52.45C388.568 59.6367 385.855 65.3933 380.428 69.72C375.075 73.9733 367.485 76.1 357.658 76.1ZM357.438 68.62C362.718 68.62 367.045 68.0333 370.418 66.86C373.865 65.6133 376.395 63.7433 378.008 61.25C379.695 58.7567 380.538 55.64 380.538 51.9C380.538 48.2333 379.732 45.19 378.118 42.77C376.505 40.2767 374.012 38.4067 370.638 37.16C367.265 35.9133 362.902 35.29 357.548 35.29C352.562 35.29 348.272 35.95 344.678 37.27C341.085 38.5167 338.298 40.3133 336.318 42.66C334.412 45.0067 333.458 47.8667 333.458 51.24C333.458 55.0533 334.375 58.28 336.208 60.92C338.115 63.4867 340.828 65.43 344.348 66.75C347.942 67.9967 352.305 68.62 357.438 68.62ZM431.339 76.1C424.373 76.1 418.323 74.5967 413.189 71.59C408.056 68.51 404.096 64.1467 401.309 58.5C398.523 52.78 397.129 45.9967 397.129 38.15C397.129 30.23 398.523 23.4467 401.309 17.8C404.096 12.1533 408.056 7.82667 413.189 4.82C418.323 1.74 424.373 0.199999 431.339 0.199999C438.306 0.199999 444.319 1.74 449.379 4.82C454.513 7.82667 458.473 12.1533 461.259 17.8C464.046 23.4467 465.439 30.23 465.439 38.15C465.439 45.9967 464.046 52.78 461.259 58.5C458.473 64.1467 454.513 68.51 449.379 71.59C444.319 74.5967 438.306 76.1 431.339 76.1ZM431.339 68.62C436.986 68.62 441.716 67.52 445.529 65.32C449.416 63.12 452.313 59.7833 454.219 55.31C456.199 50.7633 457.189 45.0433 457.189 38.15C457.189 31.2567 456.199 25.5733 454.219 21.1C452.313 16.5533 449.416 13.18 445.529 10.98C441.716 8.78 436.986 7.67999 431.339 7.67999C425.619 7.67999 420.816 8.78 416.929 10.98C413.116 13.18 410.219 16.5533 408.239 21.1C406.333 25.5733 405.379 31.2567 405.379 38.15C405.379 45.0433 406.333 50.7633 408.239 55.31C410.219 59.7833 413.116 63.12 416.929 65.32C420.816 67.52 425.619 68.62 431.339 68.62Z" fill="white"/>
</svg>
