<svg width="1503" height="327" viewBox="0 0 1503 327" fill="none" xmlns="http://www.w3.org/2000/svg">
<rect y="52" width="1258" height="224" rx="50" fill="#76C8CB"/>
<path d="M179.1 192H165.6V131.7H197.1C211.05 131.7 220.05 139.62 220.05 153.48C220.05 167.34 211.05 175.35 197.1 175.35H179.1V192ZM195.66 143.85H179.1V163.2H195.66C203.13 163.2 206.64 161.04 206.64 153.48C206.64 146.1 203.13 143.85 195.66 143.85ZM248.778 192.9C233.748 192.9 223.488 185.52 223.488 169.5C223.488 155.1 233.658 146.01 248.508 146.01C263.268 146.01 273.078 153.75 273.078 167.88C273.078 169.5 272.898 170.67 272.718 172.2H235.998C236.358 179.13 239.598 182.1 248.328 182.1C256.338 182.1 259.128 180.03 259.128 176.16V175.26H272.628V176.25C272.628 186.06 263.088 192.9 248.778 192.9ZM248.238 156.54C240.228 156.54 236.808 159.24 236.178 165.09H260.118C259.758 159.15 256.158 156.54 248.238 156.54ZM301.573 192.9C286.363 192.9 277.993 186.96 277.993 176.52V176.25H291.493V177.06C291.493 181.11 294.013 182.19 301.663 182.19C308.863 182.19 310.573 181.02 310.573 178.32C310.573 175.8 309.223 175.08 303.913 174.36L291.223 172.83C282.223 171.84 277.183 167.79 277.183 160.23C277.183 152.31 283.933 146.01 299.413 146.01C314.173 146.01 322.543 151.59 322.543 162.57V162.84H309.043V162.3C309.043 158.61 307.243 156.72 298.963 156.72C292.213 156.72 290.503 157.89 290.503 160.77C290.503 163.11 291.763 164.1 297.703 164.82L307.333 165.99C319.393 167.34 323.893 171.39 323.893 178.86C323.893 187.32 315.523 192.9 301.573 192.9ZM348.87 192.9C335.37 192.9 327.72 183.81 327.72 169.5C327.72 155.19 335.46 146.01 349.32 146.01C359.94 146.01 365.7 150.6 367.32 159.24H368.22V146.91H380.82V207.3H367.32V179.85H366.6C365.07 187.77 359.31 192.9 348.87 192.9ZM341.4 169.5C341.4 177.69 345.45 180.57 354.09 180.57C362.64 180.57 367.32 177.87 367.32 170.13V169.41C367.32 161.4 362.73 158.43 354.09 158.43C345.45 158.43 341.4 161.22 341.4 169.5ZM406.593 192.9C393.903 192.9 387.873 185.07 387.873 174.99V146.91H401.373V170.49C401.373 177.78 404.433 180.84 412.983 180.84C421.803 180.84 424.953 177.42 424.953 169.77V146.91H438.453V192H425.853V178.23H425.133C423.963 185.79 418.473 192.9 406.593 192.9ZM458.856 142.32H445.356V131.7H458.856V142.32ZM458.856 192H445.356V146.91H458.856V192ZM488.692 192.9C473.482 192.9 465.112 186.96 465.112 176.52V176.25H478.612V177.06C478.612 181.11 481.132 182.19 488.782 182.19C495.982 182.19 497.692 181.02 497.692 178.32C497.692 175.8 496.342 175.08 491.032 174.36L478.342 172.83C469.342 171.84 464.302 167.79 464.302 160.23C464.302 152.31 471.052 146.01 486.532 146.01C501.292 146.01 509.662 151.59 509.662 162.57V162.84H496.162V162.3C496.162 158.61 494.362 156.72 486.082 156.72C479.332 156.72 477.622 157.89 477.622 160.77C477.622 163.11 478.882 164.1 484.822 164.82L494.452 165.99C506.512 167.34 511.012 171.39 511.012 178.86C511.012 187.32 502.642 192.9 488.692 192.9ZM530.319 192.9C520.599 192.9 514.749 188.4 514.749 180.84C514.749 174.18 519.699 170.04 529.329 169.05L548.679 167.07V165.36C548.679 159.51 546.069 157.89 538.869 157.89C532.029 157.89 529.239 159.69 529.239 164.82V165.18H515.649V164.91C515.649 153.75 525.009 146.01 539.859 146.01C554.889 146.01 561.999 153.75 561.999 165.54V192H549.399V181.65H548.679C546.609 188.67 540.309 192.9 530.319 192.9ZM528.339 179.94C528.339 182.37 530.229 183.36 534.189 183.36C543.369 183.36 548.319 181.2 548.679 174.81L533.019 176.61C529.779 176.88 528.339 177.78 528.339 179.94ZM591.612 192.9C576.402 192.9 568.032 186.96 568.032 176.52V176.25H581.532V177.06C581.532 181.11 584.052 182.19 591.702 182.19C598.902 182.19 600.612 181.02 600.612 178.32C600.612 175.8 599.262 175.08 593.952 174.36L581.262 172.83C572.262 171.84 567.222 167.79 567.222 160.23C567.222 152.31 573.972 146.01 589.452 146.01C604.212 146.01 612.582 151.59 612.582 162.57V162.84H599.082V162.3C599.082 158.61 597.282 156.72 589.002 156.72C582.252 156.72 580.542 157.89 580.542 160.77C580.542 163.11 581.802 164.1 587.742 164.82L597.372 165.99C609.432 167.34 613.932 171.39 613.932 178.86C613.932 187.32 605.562 192.9 591.612 192.9ZM657.206 192.9C642.176 192.9 631.916 185.52 631.916 169.5C631.916 155.1 642.086 146.01 656.936 146.01C671.696 146.01 681.506 153.75 681.506 167.88C681.506 169.5 681.326 170.67 681.146 172.2H644.426C644.786 179.13 648.026 182.1 656.756 182.1C664.766 182.1 667.556 180.03 667.556 176.16V175.26H681.056V176.25C681.056 186.06 671.516 192.9 657.206 192.9ZM656.666 156.54C648.656 156.54 645.236 159.24 644.606 165.09H668.546C668.186 159.15 664.586 156.54 656.666 156.54ZM712.188 192H697.068L723.438 131.7H742.698L769.248 192H753.768L748.098 178.68H717.948L712.188 192ZM728.838 153.39L723.168 166.53H742.878L737.208 153.39L733.518 144.03H732.528L728.838 153.39ZM785.897 192H772.397V146.91H784.907V158.88H785.717C786.977 151.59 791.747 146.01 800.837 146.01C810.917 146.01 815.057 152.94 815.057 161.76V169.23H801.557V164.55C801.557 159.6 799.577 157.44 794.087 157.44C788.057 157.44 785.897 160.23 785.897 165.9V192ZM851.716 192H840.556C830.026 192 823.636 187.05 823.636 175.71V158.07H816.526V146.91H823.636V138.18H837.136V146.91H851.716V158.07H837.136V174.18C837.136 178.68 838.846 179.85 843.616 179.85H851.716V192ZM870.272 142.32H856.772V131.7H870.272V142.32ZM870.272 192H856.772V146.91H870.272V192ZM897.138 187.41C883.728 187.41 875.988 179.4 875.988 166.71C875.988 154.11 884.178 146.01 897.678 146.01C906.858 146.01 913.428 149.97 914.868 157.8H915.588V146.91H928.188V185.43C928.188 201.18 918.648 208.2 902.538 208.2C887.958 208.2 878.778 201.72 878.778 190.38H892.278C892.278 195.42 894.258 196.95 903.438 196.95C912.078 196.95 914.688 195.15 914.688 186.33V176.16H913.968C912.528 182.82 907.218 187.41 897.138 187.41ZM889.578 166.71C889.578 173.37 893.358 175.8 901.818 175.8C910.458 175.8 914.688 173.37 914.688 167.16V166.17C914.688 160.05 910.368 157.71 901.998 157.71C893.358 157.71 889.578 160.05 889.578 166.71ZM959.376 192.9C943.986 192.9 933.636 183.72 933.636 169.5C933.636 155.1 943.986 146.01 959.376 146.01C974.766 146.01 985.116 155.1 985.116 169.5C985.116 183.72 974.766 192.9 959.376 192.9ZM959.376 180.93C968.466 180.93 971.706 177.42 971.706 169.5C971.706 161.58 968.466 157.89 959.376 157.89C950.196 157.89 947.046 161.58 947.046 169.5C947.046 177.42 950.196 180.93 959.376 180.93ZM1013.4 192.9C998.189 192.9 989.819 186.96 989.819 176.52V176.25H1003.32V177.06C1003.32 181.11 1005.84 182.19 1013.49 182.19C1020.69 182.19 1022.4 181.02 1022.4 178.32C1022.4 175.8 1021.05 175.08 1015.74 174.36L1003.05 172.83C994.049 171.84 989.009 167.79 989.009 160.23C989.009 152.31 995.759 146.01 1011.24 146.01C1026 146.01 1034.37 151.59 1034.37 162.57V162.84H1020.87V162.3C1020.87 158.61 1019.07 156.72 1010.79 156.72C1004.04 156.72 1002.33 157.89 1002.33 160.77C1002.33 163.11 1003.59 164.1 1009.53 164.82L1019.16 165.99C1031.22 167.34 1035.72 171.39 1035.72 178.86C1035.72 187.32 1027.35 192.9 1013.4 192.9Z" fill="white"/>
<path d="M1353.45 85.0831C1353.45 85.0831 1365.18 86.0105 1380.85 70.9711C1383.26 66.2537 1386.36 60.9718 1390.25 55.448C1395.36 48.3113 1400.58 42.5858 1405.32 38.0297C1407.13 36.4975 1409.38 34.8443 1412.19 33.3122C1417.41 30.4494 1422.36 29.1996 1425.89 28.5948V30.4898C1422.96 33.6348 1420.03 36.7797 1417.09 39.8844C1414.36 43.1906 1410.54 48.5532 1408.29 55.8914C1406.41 61.9394 1406.81 65.3264 1405.52 72.1808C1404.6 77.0595 1402.75 84.1155 1398.49 92.5827L1389.69 106.09L1386.76 108.59C1386.76 108.59 1412.19 108.59 1429.83 94.4778C1429.83 94.4778 1456.27 79.4384 1469.97 78.4707L1478.77 79.398C1478.77 79.398 1479.73 81.2931 1470.93 84.1155C1462.13 86.9379 1452.33 96.3325 1452.33 96.3325C1452.33 96.3325 1441.56 107.622 1440.6 112.34C1440.6 112.34 1430.79 126.452 1423 129.274C1417.78 131.774 1412.55 134.274 1407.33 136.814L1408.29 138.709C1408.29 138.709 1415.16 142.459 1423.96 143.426C1423.96 143.426 1438.63 145.321 1453.33 141.531L1472.9 138.709C1472.9 138.709 1482.7 137.782 1489.53 138.709C1492.15 139.354 1494.76 139.959 1497.37 140.604C1499.02 141.531 1500.62 142.499 1502.27 143.426C1502.67 143.87 1503.15 144.555 1502.95 145.16C1502.75 145.725 1501.83 146.249 1499.34 146.249H1493.47L1475.87 149.071C1475.87 149.071 1462.17 153.789 1452.37 161.288C1452.37 161.288 1436.7 170.683 1422.03 171.65C1407.37 172.578 1409.3 171.65 1409.3 171.65V173.545C1409.3 173.545 1423 187.657 1437.66 189.552C1437.66 189.552 1468.96 195.197 1468.96 196.125C1468.96 196.125 1479.73 198.02 1493.43 209.309C1493.43 209.309 1498.33 213.059 1492.47 214.027C1492.47 214.027 1479.73 206.487 1475.83 207.455C1475.83 207.455 1448.43 206.527 1444.53 209.35C1444.53 209.35 1423.96 214.067 1411.27 210.277L1398.53 205.56C1398.53 205.56 1393.63 205.56 1397.57 211.204C1401.5 216.849 1408.33 226.244 1408.33 226.244C1408.33 226.244 1419.1 234.711 1428.9 240.356C1428.9 240.356 1439.67 245.073 1446.5 255.395C1446.5 255.395 1453.37 263.862 1455.3 269.507C1457.23 275.152 1451.4 271.402 1451.4 271.402C1451.4 271.402 1439.67 258.217 1429.87 255.395C1420.07 252.573 1407.37 251.645 1407.37 251.645C1407.37 251.645 1379.97 245.073 1371.17 231.889C1371.17 231.889 1365.3 228.139 1366.27 241.283C1367.23 254.427 1372.13 261.967 1372.13 261.967C1372.13 261.967 1386.8 279.829 1388.77 288.296C1388.77 288.296 1392.66 302.408 1391.7 308.053C1390.74 313.698 1388.77 310.876 1388.77 310.876C1388.77 310.876 1383.87 298.659 1381.9 296.763C1379.93 294.868 1370.16 283.579 1363.29 279.829C1356.42 276.079 1350.56 272.289 1350.56 272.289C1348.87 270.999 1346.18 268.781 1343.33 265.596C1334.17 255.315 1333.56 246.162 1329.99 245.96C1327.98 245.839 1324.84 248.46 1320.18 262.895C1320.18 262.895 1319.22 281.724 1321.15 287.329C1323.08 292.933 1319.18 312.73 1319.18 312.73C1319.18 312.73 1314.28 324.423 1312.31 326.56C1310.34 328.737 1310.34 322.125 1310.34 322.125C1310.34 322.125 1314.24 306.118 1307.41 295.796C1300.58 285.474 1297.6 279.789 1297.6 279.789L1290.73 269.427C1290.73 269.427 1288.76 250.597 1288.76 244.025C1288.76 237.453 1268.19 260.032 1269.2 260.032C1269.2 260.032 1264.3 263.782 1260.4 281.684C1256.5 299.546 1234.97 312.73 1234.97 312.73C1234.97 312.73 1229.1 314.625 1234 308.013C1238.9 301.4 1242.8 293.901 1242.8 293.901C1242.8 293.901 1242.8 261.927 1241.84 256.282C1240.87 250.637 1247.7 236.525 1247.7 236.525C1247.7 236.525 1255.54 228.058 1249.67 228.058C1243.8 228.058 1228.14 235.598 1228.14 235.598C1228.14 235.598 1211.5 247.815 1201.7 257.25C1191.89 266.685 1184.1 268.539 1184.1 268.539L1173.33 271.362C1173.33 271.362 1161.6 275.112 1174.3 266.645C1187.03 258.177 1192.9 247.815 1192.9 247.815C1192.9 247.815 1199.77 223.381 1209.53 213.946C1219.3 204.511 1224.2 204.551 1224.2 204.551C1224.2 204.551 1227.13 200.802 1216.36 199.834C1205.6 198.866 1185.06 203.584 1185.06 203.584C1185.06 203.584 1158.63 214.873 1153.77 214.873H1134.2C1134.2 214.873 1122.47 212.051 1135.16 209.229C1147.9 206.406 1153.77 203.584 1153.77 203.584L1170.4 191.367L1183.14 179.15C1183.14 179.15 1195.87 173.505 1200.73 172.578C1205.6 171.65 1212.47 168.828 1212.47 168.828C1212.47 168.828 1215.4 167.901 1207.56 164.11C1199.73 160.361 1186.03 156.571 1186.03 156.571C1186.03 156.571 1144.93 156.571 1140.99 154.676C1137.05 152.781 1122.39 148.103 1122.39 148.103C1122.39 148.103 1113.59 140.564 1124.36 143.386C1135.12 146.208 1145.89 145.281 1145.89 145.281L1156.66 143.386C1156.66 143.386 1179.16 134.919 1186.99 133.991C1194.83 133.064 1213.43 133.064 1213.43 133.064C1215.08 133.387 1216.68 133.709 1218.33 133.991C1218.33 133.991 1210.5 120.807 1202.66 116.13C1194.83 111.412 1172.33 103.913 1172.33 103.913C1172.33 103.913 1151.76 92.623 1151.76 89.8006L1144.89 81.3334C1144.89 81.3334 1142.92 76.6159 1149.79 80.406C1156.66 84.1961 1165.46 88.8732 1165.46 88.8732C1165.46 88.8732 1168.39 91.6957 1194.83 91.6957C1221.26 91.6957 1237.9 103.913 1237.9 103.913H1239.87C1239.87 103.913 1242.8 91.6957 1234 82.2608C1225.2 72.8259 1205.64 52.1819 1205.64 52.1819C1205.64 52.1819 1199.77 45.6099 1199.77 29.6028L1212.51 43.7148C1212.51 43.7148 1222.31 52.182 1248.71 61.5766C1248.71 61.5766 1257.51 64.399 1272.21 83.2284H1275.14L1279.04 72.8661C1279.04 72.8661 1277.07 54.0368 1273.17 43.7148C1269.28 33.3929 1267.31 26.7803 1267.31 26.7803C1267.31 26.7803 1267.31 9.84594 1269.28 7.02353C1269.28 7.02353 1271.25 -7.08849 1274.18 7.02353C1277.11 21.1356 1282.01 26.7803 1282.01 26.7803C1282.01 26.7803 1299.61 45.6098 1302.59 50.2869C1305.56 54.964 1311.02 64.1168 1311.02 64.1168C1311.02 64.1168 1314.32 72.8662 1313.35 77.5433C1312.39 82.2204 1328.02 62.504 1328.02 62.504C1328.02 62.504 1330.95 56.8591 1334.89 26.7803C1334.89 26.7803 1336.86 15.4907 1347.62 4.20108C1358.39 -7.08854 1351.52 7.95082 1351.52 7.95082C1351.52 7.95082 1344.65 27.7077 1351.52 38.9973C1358.39 50.2869 1357.39 64.3989 1357.39 64.3989C1357.39 64.3989 1358.35 77.5836 1353.49 85.0831H1353.45Z" fill="white"/>
</svg>
