<svg width="754" height="642" viewBox="0 0 754 642" fill="none" xmlns="http://www.w3.org/2000/svg">
<path d="M460.353 167.044C460.353 167.044 483.389 168.865 514.157 139.338C518.891 130.076 524.965 119.706 532.618 108.861C542.637 94.8497 552.893 83.6089 562.202 74.6638C565.752 71.6557 570.17 68.41 575.692 65.4019C585.948 59.7815 595.652 57.3276 602.594 56.1402V59.8608C596.835 66.0353 591.076 72.2097 585.317 78.3051C579.952 84.7962 572.458 95.3246 568.04 109.732C564.332 121.606 565.121 128.255 562.596 141.713C560.782 151.291 557.153 165.144 548.79 181.768L531.513 208.287L525.754 213.195C525.754 213.195 575.692 213.195 610.326 185.488C610.326 185.488 662.236 155.962 689.138 154.062L706.415 155.882C706.415 155.882 708.308 159.603 691.031 165.144C673.754 170.685 654.505 189.13 654.505 189.13C654.505 189.13 633.362 211.295 631.468 220.557C631.468 220.557 612.219 248.263 596.914 253.804C586.658 258.712 576.402 263.62 566.146 268.607L568.04 272.328C568.04 272.328 581.53 279.689 598.807 281.589C598.807 281.589 627.603 285.31 656.477 277.869L694.897 272.328C694.897 272.328 714.146 270.507 727.558 272.328C732.686 273.594 737.814 274.782 742.942 276.048C746.176 277.869 749.332 279.768 752.566 281.589C753.355 282.46 754.302 283.806 753.908 284.993C753.513 286.102 751.699 287.131 746.807 287.131H735.289L700.735 292.672C700.735 292.672 673.833 301.934 654.583 316.657C654.583 316.657 623.816 335.102 595.021 337.002C566.225 338.822 570.012 337.002 570.012 337.002V340.722C570.012 340.722 596.914 368.428 625.709 372.149C625.709 372.149 687.166 383.232 687.166 385.052C687.166 385.052 708.308 388.772 735.21 410.937C735.21 410.937 744.835 418.299 733.317 420.199C733.317 420.199 708.308 405.396 700.656 407.296C700.656 407.296 646.852 405.475 639.2 411.017C639.2 411.017 598.807 420.278 573.878 412.837L548.869 403.576C548.869 403.576 539.245 403.576 546.976 414.658C554.707 425.741 568.119 444.185 568.119 444.185C568.119 444.185 589.262 460.809 608.511 471.891C608.511 471.891 629.654 481.153 643.065 501.418C643.065 501.418 656.556 518.042 660.343 529.124C664.129 540.206 652.69 532.845 652.69 532.845C652.69 532.845 629.654 506.959 610.404 501.418C591.155 495.877 566.225 494.056 566.225 494.056C566.225 494.056 512.422 481.153 495.144 455.268C495.144 455.268 483.626 447.905 485.52 473.712C487.413 499.518 497.038 514.321 497.038 514.321C497.038 514.321 525.833 549.389 529.699 566.013C529.699 566.013 537.351 593.719 535.458 604.801C533.564 615.884 529.699 610.343 529.699 610.343C529.699 610.343 520.074 586.357 516.208 582.637C512.343 578.916 493.172 556.751 479.682 549.389C466.191 542.027 454.673 534.586 454.673 534.586C451.36 532.053 446.074 527.699 440.473 521.446C422.485 501.26 421.302 483.29 414.281 482.895C410.336 482.657 404.183 487.803 395.031 516.142C395.031 516.142 393.138 553.11 396.925 564.113C400.711 575.117 393.059 613.984 393.059 613.984C393.059 613.984 383.434 636.941 379.569 641.136C375.703 645.411 375.703 632.429 375.703 632.429C375.703 632.429 383.355 601.002 369.944 580.737C356.532 560.472 350.694 549.31 350.694 549.31L337.204 528.966C337.204 528.966 333.338 491.998 333.338 479.094C333.338 466.191 292.946 510.521 294.918 510.521C294.918 510.521 285.294 517.883 277.641 553.031C269.989 588.099 227.703 613.984 227.703 613.984C227.703 613.984 216.185 617.705 225.81 604.723C235.434 591.74 243.087 577.016 243.087 577.016C243.087 577.016 243.087 514.242 241.193 503.16C239.3 492.077 252.712 464.371 252.712 464.371C252.712 464.371 268.095 447.747 256.577 447.747C245.059 447.747 214.292 462.55 214.292 462.55C214.292 462.55 181.631 486.536 162.381 505.059C143.132 523.583 127.827 527.224 127.827 527.224L106.684 532.766C106.684 532.766 83.6477 540.128 108.577 523.504C133.586 506.88 145.104 486.536 145.104 486.536C145.104 486.536 158.594 438.565 177.765 420.041C196.935 401.517 206.56 401.597 206.56 401.597C206.56 401.597 212.319 394.235 191.176 392.335C170.034 390.435 129.72 399.697 129.72 399.697C129.72 399.697 77.8098 421.862 68.2639 421.862H29.8438C29.8438 421.862 6.80762 416.321 31.7373 410.779C56.7458 405.238 68.2639 399.697 68.2639 399.697L100.925 375.711L125.933 351.726C125.933 351.726 150.942 340.643 160.488 338.822C170.034 337.002 183.524 331.46 183.524 331.46C183.524 331.46 189.283 329.64 173.899 322.199C158.516 314.837 131.614 307.396 131.614 307.396C131.614 307.396 50.9078 307.396 43.1765 303.675C35.4451 299.954 6.6499 290.772 6.6499 290.772C6.6499 290.772 -10.6274 275.969 10.5155 281.51C31.6583 287.051 52.8012 285.231 52.8012 285.231L73.9441 281.51C73.9441 281.51 118.123 264.886 133.507 263.066C148.891 261.245 185.417 261.245 185.417 261.245C188.652 261.878 191.808 262.512 195.042 263.066C195.042 263.066 179.658 237.18 164.275 227.998C148.891 218.736 104.712 204.012 104.712 204.012C104.712 204.012 64.3194 181.847 64.3194 176.306L50.8289 159.682C50.8289 159.682 46.9632 150.42 60.4537 157.861C73.9441 165.302 91.2212 174.485 91.2212 174.485C91.2212 174.485 96.9804 180.026 148.891 180.026C200.801 180.026 233.462 204.012 233.462 204.012H237.328C237.328 204.012 243.087 180.026 225.81 161.503C208.533 142.979 170.112 102.449 170.112 102.449C170.112 102.449 158.594 89.546 158.594 58.1192L183.603 85.8254C183.603 85.8254 202.852 102.449 254.684 120.893C254.684 120.893 271.961 126.435 300.835 163.403H306.594L314.247 143.058C314.247 143.058 310.381 106.091 302.729 85.8254C295.076 65.5603 291.21 52.5779 291.21 52.5779C291.21 52.5779 291.211 19.3306 295.076 13.7893C295.076 13.7893 298.942 -13.9169 304.701 13.7893C310.46 41.4955 320.085 52.5779 320.085 52.5779C320.085 52.5779 354.639 89.5458 360.477 98.7284C366.315 107.911 377.044 125.881 377.044 125.881C377.044 125.881 383.513 143.058 381.62 152.241C379.727 161.424 410.415 122.714 410.415 122.714C410.415 122.714 416.174 111.632 423.906 52.5779C423.906 52.5779 427.771 30.4129 448.914 8.24799C470.057 -13.9169 456.567 15.6099 456.567 15.6099C456.567 15.6099 443.076 54.3986 456.567 76.5635C470.057 98.7285 468.085 126.435 468.085 126.435C468.085 126.435 469.978 152.32 460.432 167.044H460.353Z" fill="#F2CD5E"/>
</svg>
