<svg width="718" height="610" viewBox="0 0 718 610" fill="none" xmlns="http://www.w3.org/2000/svg">
<path d="M438.374 158.718C438.374 158.718 460.31 160.448 489.608 132.393C494.116 123.592 499.901 113.739 507.188 103.435C516.729 90.122 526.495 79.4415 535.359 70.9422C538.74 68.084 542.947 65.0001 548.206 62.142C557.972 56.8017 567.212 54.4702 573.823 53.342V56.8771C568.339 62.7438 562.855 68.6105 557.371 74.402C552.262 80.5696 545.126 90.5732 540.919 104.262C537.388 115.545 538.139 121.863 535.735 134.649C534.007 143.75 530.551 156.913 522.588 172.708L506.136 197.905L500.652 202.568C500.652 202.568 548.206 202.568 581.185 176.243C581.185 176.243 630.617 148.188 656.235 146.383L672.687 148.112C672.687 148.112 674.49 151.648 658.038 156.913C641.586 162.178 623.255 179.703 623.255 179.703C623.255 179.703 603.122 200.763 601.319 209.563C601.319 209.563 582.988 235.888 568.414 241.153C558.648 245.817 548.882 250.48 539.116 255.218L540.919 258.754C540.919 258.754 553.765 265.748 570.217 267.554C570.217 267.554 597.638 271.089 625.133 264.018L661.719 258.754C661.719 258.754 680.049 257.024 692.82 258.754C697.703 259.957 702.587 261.085 707.47 262.289C710.55 264.019 713.555 265.824 716.635 267.554C717.386 268.381 718.288 269.66 717.912 270.788C717.536 271.841 715.808 272.819 711.151 272.819H700.183L667.278 278.084C667.278 278.084 641.661 286.884 623.33 300.874C623.33 300.874 594.032 318.399 566.611 320.204C539.191 321.934 542.797 320.204 542.797 320.204V323.739C542.797 323.739 568.414 350.064 595.835 353.599C595.835 353.599 654.357 364.13 654.357 365.86C654.357 365.86 674.49 369.394 700.107 390.455C700.107 390.455 709.273 397.449 698.304 399.255C698.304 399.255 674.49 385.19 667.203 386.995C667.203 386.995 615.968 385.265 608.681 390.53C608.681 390.53 570.217 399.33 546.478 392.26L522.663 383.46C522.663 383.46 513.498 383.46 520.86 393.99C528.223 404.52 540.994 422.045 540.994 422.045C540.994 422.045 561.127 437.84 579.457 448.37C579.457 448.37 599.591 457.17 612.362 476.425C612.362 476.425 625.208 492.22 628.814 502.75C632.42 513.28 621.527 506.286 621.527 506.286C621.527 506.286 599.591 481.69 581.26 476.425C562.93 471.16 539.191 469.43 539.191 469.43C539.191 469.43 487.956 457.17 471.504 432.575C471.504 432.575 460.535 425.58 462.338 450.1C464.141 474.62 473.306 488.685 473.306 488.685C473.306 488.685 500.727 522.005 504.408 537.801C504.408 537.801 511.695 564.125 509.892 574.656C508.089 585.186 504.408 579.921 504.408 579.921C504.408 579.921 495.243 557.131 491.562 553.596C487.881 550.06 469.625 529 456.779 522.005C443.933 515.01 432.965 507.94 432.965 507.94C429.809 505.533 424.776 501.397 419.442 495.455C402.314 476.275 401.187 459.201 394.501 458.825C390.745 458.599 384.885 463.488 376.17 490.415C376.17 490.415 374.367 525.541 377.973 535.995C381.579 546.45 374.292 583.381 374.292 583.381C374.292 583.381 365.127 605.193 361.446 609.179C357.765 613.241 357.765 600.906 357.765 600.906C357.765 600.906 365.052 571.045 352.281 551.79C339.51 532.535 333.95 521.93 333.95 521.93L321.104 502.6C321.104 502.6 317.423 467.474 317.423 455.214C317.423 442.954 278.959 485.075 280.837 485.075C280.837 485.075 271.672 492.07 264.385 525.465C257.098 558.785 216.831 583.381 216.831 583.381C216.831 583.381 205.863 586.916 215.028 574.581C224.194 562.245 231.481 548.256 231.481 548.256C231.481 548.256 231.481 488.61 229.678 478.08C227.875 467.55 240.646 441.225 240.646 441.225C240.646 441.225 255.295 425.43 244.327 425.43C233.359 425.43 204.06 439.495 204.06 439.495C204.06 439.495 172.959 462.285 154.628 479.885C136.298 497.485 121.724 500.945 121.724 500.945L101.59 506.21C101.59 506.21 79.6539 513.205 103.393 497.41C127.208 481.615 138.176 462.285 138.176 462.285C138.176 462.285 151.022 416.705 169.277 399.104C187.533 381.504 196.698 381.579 196.698 381.579C196.698 381.579 202.182 374.584 182.049 372.779C161.915 370.974 123.527 379.774 123.527 379.774C123.527 379.774 74.0947 400.834 65.0046 400.834H28.4189C28.4189 400.834 6.48259 395.569 30.2219 390.304C54.0364 385.039 65.0046 379.774 65.0046 379.774L96.1062 356.984L119.921 334.194C119.921 334.194 143.735 323.664 152.825 321.934C161.915 320.204 174.762 314.939 174.762 314.939C174.762 314.939 180.246 313.209 165.596 306.139C150.947 299.144 125.33 292.074 125.33 292.074C125.33 292.074 48.4772 292.074 41.115 288.539C33.7528 285.004 6.3324 276.279 6.3324 276.279C6.3324 276.279 -10.12 262.214 10.0134 267.479C30.1468 272.744 50.2802 271.014 50.2802 271.014L70.4136 267.479C70.4136 267.479 112.483 251.683 127.133 249.953C141.782 248.223 176.565 248.224 176.565 248.224C179.645 248.825 182.65 249.427 185.73 249.953C185.73 249.953 171.08 225.358 156.431 216.633C141.782 207.833 99.7122 193.843 99.7122 193.843C99.7122 193.843 61.2484 172.783 61.2484 167.518L48.4021 151.723C48.4021 151.723 44.721 142.923 57.5673 149.993C70.4136 157.063 86.8658 165.788 86.8658 165.788C86.8658 165.788 92.35 171.053 141.782 171.053C191.214 171.053 222.315 193.843 222.315 193.843H225.996C225.996 193.843 231.481 171.053 215.028 153.453C198.576 135.853 161.99 97.3425 161.99 97.3425C161.99 97.3425 151.022 85.0826 151.022 55.2223L174.837 81.5475C174.837 81.5475 193.167 97.3426 242.524 114.868C242.524 114.868 258.976 120.133 286.472 155.258H291.956L299.243 135.928C299.243 135.928 295.562 100.803 288.275 81.5475C280.988 62.2925 277.307 49.9572 277.307 49.9572C277.307 49.9572 277.307 18.367 280.988 13.102C280.988 13.102 284.669 -13.2232 290.153 13.102C295.637 39.4272 304.802 49.9572 304.802 49.9572C304.802 49.9572 337.707 85.0824 343.266 93.8073C348.825 102.532 359.042 119.606 359.042 119.606C359.042 119.606 365.202 135.928 363.399 144.653C361.596 153.378 390.82 116.598 390.82 116.598C390.82 116.598 396.304 106.067 403.666 49.9572C403.666 49.9572 407.347 28.897 427.481 7.83688C447.614 -13.2233 434.768 14.8318 434.768 14.8318C434.768 14.8318 421.921 51.6871 434.768 72.7473C447.614 93.8074 445.736 120.133 445.736 120.133C445.736 120.133 447.539 144.728 438.449 158.718H438.374Z" fill="white"/>
</svg>
