<svg width="205" height="174" viewBox="0 0 205 174" fill="none" xmlns="http://www.w3.org/2000/svg">
<path d="M125.154 45.2736C125.154 45.2736 131.418 45.7671 139.784 37.7644C141.071 35.2542 142.723 32.4437 144.804 29.5044C147.528 25.7069 150.317 22.6604 152.848 20.236C153.813 19.4207 155.014 18.541 156.516 17.7257C159.305 16.2025 161.943 15.5374 163.831 15.2156V16.224C162.265 17.8974 160.699 19.5709 159.133 21.2229C157.674 22.9822 155.637 25.8356 154.435 29.7404C153.427 32.9586 153.642 34.7608 152.955 38.4081C152.462 41.0041 151.475 44.7587 149.201 49.2642L144.503 56.4515L142.937 57.7817C142.937 57.7817 156.516 57.7817 165.933 50.2726C165.933 50.2726 180.048 42.27 187.363 41.7551L192.061 42.2485C192.061 42.2485 192.576 43.2569 187.878 44.7587C183.18 46.2605 177.946 51.2595 177.946 51.2595C177.946 51.2595 172.197 57.2668 171.682 59.777C171.682 59.777 166.448 67.2862 162.286 68.788C159.498 70.1182 156.709 71.4484 153.92 72.8L154.435 73.8084C154.435 73.8084 158.103 75.8036 162.801 76.3186C162.801 76.3186 170.631 77.3269 178.482 75.3102L188.929 73.8084C188.929 73.8084 194.163 73.3149 197.81 73.8084C199.204 74.1517 200.599 74.4735 201.993 74.8168C202.873 75.3102 203.731 75.8251 204.61 76.3186C204.825 76.5546 205.082 76.9193 204.975 77.2412C204.868 77.5415 204.374 77.8204 203.044 77.8204H199.912L190.517 79.3222C190.517 79.3222 183.202 81.8325 177.967 85.8231C177.967 85.8231 169.601 90.822 161.772 91.3369C153.942 91.8303 154.972 91.3369 154.972 91.3369V92.3452C154.972 92.3452 162.286 99.8544 170.116 100.863C170.116 100.863 186.827 103.866 186.827 104.36C186.827 104.36 192.576 105.368 199.891 111.376C199.891 111.376 202.508 113.371 199.376 113.886C199.376 113.886 192.576 109.874 190.495 110.389C190.495 110.389 175.865 109.895 173.784 111.397C173.784 111.397 162.801 113.907 156.023 111.891L149.223 109.38C149.223 109.38 146.605 109.38 148.708 112.384C150.81 115.388 154.457 120.387 154.457 120.387C154.457 120.387 160.206 124.892 165.44 127.896C165.44 127.896 171.189 130.406 174.836 135.898C174.836 135.898 178.504 140.404 179.533 143.407C180.563 146.411 177.453 144.416 177.453 144.416C177.453 144.416 171.189 137.4 165.955 135.898C160.721 134.396 153.942 133.903 153.942 133.903C153.942 133.903 139.312 130.406 134.614 123.39C134.614 123.39 131.482 121.395 131.997 128.389C132.512 135.383 135.129 139.395 135.129 139.395C135.129 139.395 142.959 148.9 144.01 153.405C144.01 153.405 146.091 160.914 145.576 163.918C145.061 166.922 144.01 165.42 144.01 165.42C144.01 165.42 141.393 158.919 140.342 157.911C139.291 156.902 134.078 150.895 130.41 148.9C126.741 146.905 123.61 144.888 123.61 144.888C122.709 144.201 121.271 143.021 119.748 141.326C114.857 135.855 114.536 130.985 112.626 130.878C111.554 130.814 109.881 132.208 107.392 139.889C107.392 139.889 106.877 149.908 107.907 152.891C108.937 155.873 106.856 166.407 106.856 166.407C106.856 166.407 104.239 172.629 103.188 173.766C102.137 174.924 102.137 171.406 102.137 171.406C102.137 171.406 104.217 162.888 100.571 157.396C96.9239 151.904 95.3365 148.878 95.3365 148.878L91.6683 143.365C91.6683 143.365 90.6172 133.345 90.6172 129.848C90.6172 126.351 79.634 138.366 80.1703 138.366C80.1703 138.366 77.5532 140.361 75.4724 149.887C73.3917 159.391 61.8937 166.407 61.8937 166.407C61.8937 166.407 58.7618 167.415 61.3788 163.897C63.9959 160.378 66.0767 156.388 66.0767 156.388C66.0767 156.388 66.0767 139.374 65.5619 136.37C65.047 133.367 68.6938 125.857 68.6938 125.857C68.6938 125.857 72.8768 121.352 69.7449 121.352C66.613 121.352 58.2469 125.364 58.2469 125.364C58.2469 125.364 49.366 131.865 44.1319 136.885C38.8977 141.906 34.7361 142.893 34.7361 142.893L28.9872 144.394C28.9872 144.394 22.7233 146.39 29.502 141.884C36.3021 137.379 39.434 131.865 39.434 131.865C39.434 131.865 43.1022 118.863 48.3149 113.843C53.5276 108.823 56.1447 108.844 56.1447 108.844C56.1447 108.844 57.7106 106.849 51.9617 106.334C46.2127 105.819 35.251 108.329 35.251 108.329C35.251 108.329 21.1359 114.336 18.5403 114.336H8.1149C8.1149 114.336 1.85107 112.835 8.62973 111.333C15.4298 109.831 18.5618 108.329 18.5618 108.329L27.4427 101.828L34.2428 95.3275C34.2428 95.3275 41.0429 92.3238 43.6385 91.8303C46.2341 91.3369 49.9023 89.8351 49.9023 89.8351C49.9023 89.8351 51.4683 89.3416 47.2852 87.3248C43.1022 85.3296 35.7873 83.3128 35.7873 83.3128C35.7873 83.3128 13.8424 83.3128 11.7402 82.3045C9.63795 81.2961 1.80817 78.8073 1.80817 78.8073C1.80817 78.8073 -2.8897 74.7953 2.85929 76.2972C8.60828 77.799 14.3573 77.3055 14.3573 77.3055L20.1063 76.2972C20.1063 76.2972 32.1191 71.7916 36.3021 71.2982C40.4851 70.8047 50.4172 70.8047 50.4172 70.8047C51.2967 70.9764 52.1547 71.148 53.0342 71.2982C53.0342 71.2982 48.8512 64.2825 44.6682 61.7938C40.4851 59.2835 28.4723 55.293 28.4723 55.293C28.4723 55.293 17.4892 49.2857 17.4892 47.7838L13.821 43.2783C13.821 43.2783 12.7699 40.7681 16.4381 42.7848C20.1063 44.8016 24.8041 47.2903 24.8041 47.2903C24.8041 47.2903 26.3701 48.7922 40.4851 48.7922C54.6002 48.7922 63.4811 55.293 63.4811 55.293H64.5322C64.5322 55.293 66.0982 48.7922 61.4003 43.7718C56.7024 38.7514 46.2556 27.7665 46.2556 27.7665C46.2556 27.7665 43.1237 24.2695 43.1237 15.7519L49.9238 23.2611C49.9238 23.2611 55.1579 27.7666 69.2515 32.7655C69.2515 32.7655 73.9494 34.2673 81.8006 44.2867H83.3666L85.4474 38.7728C85.4474 38.7728 84.3962 28.7535 82.3155 23.2611C80.2347 17.7687 79.1835 14.2501 79.1835 14.2501C79.1835 14.2501 79.1835 5.23912 80.2347 3.73729C80.2347 3.73729 81.2858 -3.77186 82.8517 3.73729C84.4177 11.2464 87.0348 14.2501 87.0348 14.2501C87.0348 14.2501 96.4305 24.2694 98.0179 26.7582C99.6053 29.2469 102.523 34.1172 102.523 34.1172C102.523 34.1172 104.282 38.7728 103.767 41.2616C103.252 43.7503 111.597 33.259 111.597 33.259C111.597 33.259 113.163 30.2553 115.265 14.2501C115.265 14.2501 116.316 8.24276 122.065 2.23544C127.814 -3.77188 124.146 4.23071 124.146 4.23071C124.146 4.23071 120.478 14.7435 124.146 20.7509C127.814 26.7582 127.278 34.2673 127.278 34.2673C127.278 34.2673 127.793 41.283 125.197 45.2736H125.154Z" fill="#2953A6"/>
</svg>
