<svg width="213" height="181" viewBox="0 0 213 181" fill="none" xmlns="http://www.w3.org/2000/svg">
<path d="M130.047 47.0949C130.047 47.0949 136.554 47.6083 145.246 39.2837C146.583 36.6725 148.299 33.7489 150.461 30.6914C153.291 26.7411 156.189 23.572 158.818 21.0501C159.821 20.202 161.069 19.2869 162.629 18.4388C165.526 16.8543 168.268 16.1625 170.229 15.8277V16.8766C168.602 18.6174 166.975 20.3582 165.348 22.0767C163.833 23.9067 161.715 26.875 160.467 30.9368C159.42 34.2845 159.643 36.1592 158.93 39.9533C158.417 42.6537 157.392 46.5593 155.03 51.2461L150.149 58.7226L148.522 60.1063C148.522 60.1063 162.629 60.1063 172.413 52.295C172.413 52.295 187.077 43.9705 194.677 43.4349L199.558 43.9481C199.558 43.9481 200.092 44.9971 195.212 46.5593C190.331 48.1216 184.893 53.3216 184.893 53.3216C184.893 53.3216 178.921 59.5706 178.386 62.1818C178.386 62.1818 172.948 69.9931 168.624 71.5553C165.727 72.939 162.83 74.3227 159.933 75.7288L160.467 76.7777C160.467 76.7777 164.278 78.8532 169.159 79.3888C169.159 79.3888 177.294 80.4378 185.45 78.3399L196.304 76.7777C196.304 76.7777 201.742 76.2644 205.53 76.7777C206.979 77.1348 208.427 77.4696 209.876 77.8266C210.79 78.34 211.681 78.8755 212.595 79.3888C212.818 79.6343 213.085 80.0138 212.974 80.3486C212.862 80.661 212.35 80.9511 210.968 80.9511H207.714L197.953 82.5133C197.953 82.5133 190.353 85.1246 184.915 89.2757C184.915 89.2757 176.224 94.4757 168.089 95.0113C159.955 95.5246 161.025 95.0113 161.025 95.0113V96.0603C161.025 96.0603 168.624 103.872 176.759 104.92C176.759 104.92 194.12 108.045 194.12 108.558C194.12 108.558 200.092 109.607 207.692 115.856C207.692 115.856 210.411 117.932 207.157 118.467C207.157 118.467 200.092 114.294 197.931 114.83C197.931 114.83 182.731 114.316 180.57 115.879C180.57 115.879 169.159 118.49 162.117 116.392L155.052 113.781C155.052 113.781 152.333 113.781 154.517 116.905C156.701 120.03 160.49 125.23 160.49 125.23C160.49 125.23 166.462 129.916 171.9 133.041C171.9 133.041 177.873 135.652 181.662 141.365C181.662 141.365 185.473 146.052 186.542 149.177C187.612 152.301 184.381 150.226 184.381 150.226C184.381 150.226 177.873 142.928 172.435 141.365C166.997 139.803 159.955 139.29 159.955 139.29C159.955 139.29 144.756 135.652 139.875 128.354C139.875 128.354 136.621 126.279 137.156 133.554C137.691 140.83 140.41 145.003 140.41 145.003C140.41 145.003 148.544 154.89 149.636 159.577C149.636 159.577 151.798 167.388 151.263 170.513C150.728 173.637 149.636 172.075 149.636 172.075C149.636 172.075 146.917 165.313 145.825 164.264C144.733 163.215 139.318 156.966 135.507 154.89C131.696 152.814 128.442 150.717 128.442 150.717C127.506 150.002 126.013 148.775 124.431 147.012C119.349 141.321 119.015 136.255 117.032 136.143C115.917 136.076 114.179 137.527 111.594 145.517C111.594 145.517 111.059 155.939 112.129 159.041C113.198 162.143 111.037 173.101 111.037 173.101C111.037 173.101 108.318 179.574 107.226 180.757C106.134 181.962 106.134 178.302 106.134 178.302C106.134 178.302 108.295 169.441 104.507 163.728C100.718 158.015 99.0688 154.868 99.0688 154.868L95.2579 149.132C95.2579 149.132 94.1659 138.71 94.1659 135.072C94.1659 131.434 82.7553 143.932 83.3125 143.932C83.3125 143.932 80.5936 146.008 78.4318 155.917C76.27 165.804 64.3246 173.101 64.3246 173.101C64.3246 173.101 61.0708 174.15 63.7897 170.49C66.5087 166.83 68.6704 162.679 68.6704 162.679C68.6704 162.679 68.6704 144.981 68.1356 141.857C67.6007 138.732 71.3893 130.921 71.3893 130.921C71.3893 130.921 75.7352 126.234 72.4814 126.234C69.2276 126.234 60.5359 130.407 60.5359 130.407C60.5359 130.407 51.3094 137.17 45.8716 142.392C40.4337 147.615 36.1102 148.641 36.1102 148.641L30.1375 150.203C30.1375 150.203 23.6299 152.279 30.6724 147.592C37.7371 142.905 40.9909 137.17 40.9909 137.17C40.9909 137.17 44.8018 123.645 50.2174 118.423C55.633 113.2 58.3519 113.223 58.3519 113.223C58.3519 113.223 59.9788 111.147 54.0061 110.612C48.0334 110.076 36.6451 112.687 36.6451 112.687C36.6451 112.687 21.9807 118.936 19.2841 118.936H8.43068C8.43068 118.936 1.92311 117.374 8.96556 115.812C16.0303 114.249 19.2841 112.687 19.2841 112.687L28.5106 105.925L35.5753 99.1625C35.5753 99.1625 42.6401 96.038 45.3367 95.5247C48.0334 95.0114 51.8443 93.4491 51.8443 93.4491C51.8443 93.4491 53.4712 92.9358 49.1254 90.8379C44.7796 88.7624 37.18 86.6645 37.18 86.6645C37.18 86.6645 14.3811 86.6645 12.1971 85.6155C10.013 84.5666 1.87855 81.9777 1.87855 81.9777C1.87855 81.9777 -3.00216 77.8043 2.97056 79.3666C8.94327 80.9288 14.916 80.4155 14.916 80.4155L20.8887 79.3666C20.8887 79.3666 33.369 74.6798 37.7148 74.1665C42.0606 73.6532 52.3792 73.6532 52.3792 73.6532C53.2929 73.8318 54.1844 74.0103 55.0981 74.1665C55.0981 74.1665 50.7523 66.8686 46.4065 64.2797C42.0606 61.6685 29.5803 57.5174 29.5803 57.5174C29.5803 57.5174 18.1698 51.2684 18.1698 49.7062L14.3588 45.0194C14.3588 45.0194 13.2668 42.4082 17.0778 44.5061C20.8887 46.6039 25.7694 49.1928 25.7694 49.1928C25.7694 49.1928 27.3963 50.7551 42.0607 50.7551C56.725 50.7551 65.9515 57.5174 65.9515 57.5174H67.0435C67.0435 57.5174 68.6704 50.7551 63.7897 45.5327C58.9091 40.3104 48.0556 28.8836 48.0556 28.8836C48.0556 28.8836 44.8019 25.2458 44.8019 16.3856L51.8666 24.1969C51.8666 24.1969 57.3044 28.8836 71.9465 34.0837C71.9465 34.0837 76.8272 35.6459 84.984 46.0683H86.6108L88.7726 40.3326C88.7726 40.3326 87.6806 29.9103 85.5188 24.1969C83.3571 18.4835 82.265 14.8234 82.265 14.8234C82.265 14.8234 82.265 5.44989 83.3571 3.88764C83.3571 3.88764 84.4491 -3.9236 86.076 3.88764C87.7029 11.6989 90.4218 14.8234 90.4218 14.8234C90.4218 14.8234 100.183 25.2458 101.832 27.8346C103.482 30.4235 106.512 35.4897 106.512 35.4897C106.512 35.4897 108.34 40.3326 107.805 42.9215C107.27 45.5104 115.94 34.597 115.94 34.597C115.94 34.597 117.566 31.4725 119.751 14.8234C119.751 14.8234 120.843 8.57436 126.815 2.32537C132.788 -3.92363 128.977 4.40091 128.977 4.40091C128.977 4.40091 125.166 15.3367 128.977 21.5857C132.788 27.8347 132.231 35.6459 132.231 35.6459C132.231 35.6459 132.766 42.9438 130.069 47.0949H130.047Z" fill="#D95BB7"/>
</svg>
